<svg width="815" height="263" viewBox="0 0 815 263" fill="none" xmlns="http://www.w3.org/2000/svg">
<g clip-path="url(#clip0_5371_291)">
<mask id="mask0_5371_291" style="mask-type:luminance" maskUnits="userSpaceOnUse" x="0" y="0" width="815" height="263">
<path d="M815 0H0V263H815V0Z" fill="white"/>
</mask>
<g mask="url(#mask0_5371_291)">
<path d="M815 0H0V263H815V0Z" fill="black"/>
<path d="M377.17 79.3819H356V100.553H377.17V79.3819Z" fill="white"/>
<path d="M728 165.073H706.829V186.244H728V165.073Z" fill="white"/>
<path d="M377.17 109.626H364.379C359.751 109.626 356 113.378 356 118.006V186.244H377.17V109.626Z" fill="white"/>
<path d="M654.911 186.244C635.728 186.244 620.13 170.812 620.13 151.832V144.038C620.13 125.059 635.728 109.626 654.911 109.626C674.094 109.626 689.691 125.059 689.691 144.038V151.832C689.691 170.812 674.094 186.244 654.911 186.244ZM654.911 130.341C647.269 130.341 641.066 136.478 641.066 144.038V151.832C641.066 159.393 647.269 165.53 654.911 165.53C662.552 165.53 668.755 159.393 668.755 151.832V144.038C668.755 136.478 662.552 130.341 654.911 130.341Z" fill="white"/>
<path fill-rule="evenodd" clip-rule="evenodd" d="M395.317 109.626H441.691C455.61 109.626 466.894 120.91 466.894 134.83V186.244H446.732V134.83C446.732 132.046 444.475 129.789 441.691 129.789H415.479V186.244H395.317V109.626Z" fill="white"/>
<path d="M528.399 146.073L548.677 109.626H531.951C528.187 109.626 524.709 111.631 522.824 114.889L511.318 134.769C509.861 137.286 507.173 138.836 504.265 138.836V80.3899H483.024V186.244H504.265V153.232C507.18 153.232 509.882 154.761 511.382 157.261L525.202 180.296C527.416 183.986 531.404 186.244 535.707 186.244H551.577L528.399 146.073Z" fill="white"/>
<path fill-rule="evenodd" clip-rule="evenodd" d="M298.541 186.244C289.671 186.244 282.48 179.053 282.48 170.183V78.374H303.82V160.939C303.82 163.253 305.696 165.129 308.01 165.129H341.886V186.244C329.765 186.244 310.662 186.244 298.541 186.244Z" fill="white"/>
<path d="M575.772 102.522H552.692L561.799 85.7751C563.266 83.0778 566.09 81.3986 569.161 81.3986H620.088V102.522H596.943V186.244H575.772V102.522Z" fill="white"/>
<path fill-rule="evenodd" clip-rule="evenodd" d="M201.961 132.47C201.961 112.533 189.809 95.5459 172.625 88.3911C163.104 84.4272 154.428 76.4067 154.428 66.0942V49.9998C200.078 49.9998 236.899 87.0253 236.899 132.47C236.899 177.915 200.078 214.941 154.428 214.941V198.846C154.428 188.534 163.104 180.513 172.625 176.549C189.809 169.395 201.961 152.408 201.961 132.47Z" fill="url(#paint0_linear_5371_291)"/>
<path fill-rule="evenodd" clip-rule="evenodd" d="M132.291 139.279C134.986 136.816 134.993 132.574 132.306 130.103L86 87.5099L87.2713 85.9732C98.6337 72.239 119.188 70.8361 132.311 82.8991L162.587 110.73C176.534 123.415 176.497 146.124 162.508 158.759L133.994 184.796C120.83 196.817 100.279 195.345 88.9624 181.571L87.695 180.028L132.291 139.279Z" fill="url(#paint1_linear_5371_291)"/>
</g>
</g>
<defs>
<linearGradient id="paint0_linear_5371_291" x1="196.007" y1="64.5546" x2="169.323" y2="201.786" gradientUnits="userSpaceOnUse">
<stop stop-color="#C2725E"/>
<stop offset="0.602466" stop-color="#FFBE9B"/>
<stop offset="1" stop-color="#FFFEC3"/>
</linearGradient>
<linearGradient id="paint1_linear_5371_291" x1="104.174" y1="134.556" x2="159.559" y2="143.511" gradientUnits="userSpaceOnUse">
<stop stop-color="#C2725E"/>
<stop offset="0.60596" stop-color="#FFBE9B"/>
<stop offset="1" stop-color="#FFFEC3"/>
</linearGradient>
<clipPath id="clip0_5371_291">
<rect width="815" height="263" fill="white"/>
</clipPath>
</defs>
</svg>
